# xmcd
#
# Track frame offsets: 
#        150
#        13296
#        24921
#        47140
#        62609
#        77937
#        92656
#        105987
#        118906
#        127027
#        140855
#        161555
#        176761
#        191630
#        207211
#        224855
#        239440
#
# Disc length: 3358 seconds
#
# Revision: 0
# Processed by: cddbd v1.5.2PL0 Copyright (c) Steve Scherf et al.
# Submitted via: ExactAudioCopy v1.3
#
DISCID=010d1c11
DTITLE=Ronan Drury - Something Else
DYEAR=2011
DGENRE=Celtic
TTITLE0=Don't think twice it's allright
TTITLE1=The rising of the moon
TTITLE2=The fisherman
TTITLE3=Never too early
TTITLE4=The cat's in the cradle
TTITLE5=The ballad of St. Anne's reel
TTITLE6=Whiskey in the jar
TTITLE7=Lucille
TTITLE8=Johnny McEldoo
TTITLE9=There's life in the old dog yet
TTITLE10=The boxer
TTITLE11=Woman
TTITLE12=The lark in the morning
TTITLE13=Johnny I hardly knew ye
TTITLE14=Isle of hope, isle of tears
TTITLE15=Missing you
TTITLE16=Ring of fire
EXTD=
EXTT0=
EXTT1=
EXTT2=
EXTT3=
EXTT4=
EXTT5=
EXTT6=
EXTT7=
EXTT8=
EXTT9=
EXTT10=
EXTT11=
EXTT12=
EXTT13=
EXTT14=
EXTT15=
EXTT16=
PLAYORDER=
